<?xml version="1.0" encoding="utf-8"?>
<!-- Generator: Adobe Illustrator 16.0.0, SVG Export Plug-In . SVG Version: 6.00 Build 0)  -->
<!DOCTYPE svg PUBLIC "-//W3C//DTD SVG 1.1//EN" "http://www.w3.org/Graphics/SVG/1.1/DTD/svg11.dtd">
<svg version="1.1" id="Selected_Items" xmlns="http://www.w3.org/2000/svg" xmlns:xlink="http://www.w3.org/1999/xlink" x="0px"
	 y="0px" width="423px" height="423px" viewBox="0 0 423 423" enable-background="new 0 0 423 423" xml:space="preserve">
<path fill-rule="evenodd" clip-rule="evenodd" fill="#C72127" d="M373.416,122.842l0.127,0.128h-0.127L339.62,142.1
	c-3.23-5.527-6.888-10.84-10.968-15.941c-3.656-4.677-7.651-9.183-11.988-13.519c-6.887-6.886-14.113-12.88-21.68-17.981
	c-6.888-4.591-13.986-8.502-21.297-11.733c-1.36-0.595-2.72-1.147-4.083-1.657c-8.247-3.231-16.79-5.612-25.633-7.142
	c-8.247-1.446-16.791-2.168-25.633-2.168c-8.843,0-17.388,0.722-25.634,2.168c-8.927,1.529-17.472,3.953-25.635,7.269
	c-1.359,0.51-2.72,1.063-4.081,1.659c-7.396,3.145-14.495,7.014-21.297,11.605c-7.566,5.101-14.794,11.095-21.68,17.981
	c-13.094,13.093-22.999,27.462-29.716,43.106c-0.594,1.275-1.105,2.55-1.529,3.826c-6.292,15.813-9.438,32.903-9.438,51.267
	c0,18.28,3.061,35.285,9.182,51.012c0.085,0.257,0.212,0.511,0.383,0.765c0.425,1.19,0.893,2.381,1.402,3.572
	c6.803,15.645,16.707,29.97,29.716,42.977c6.886,6.887,14.155,12.882,21.807,17.984c6.802,4.675,13.944,8.628,21.426,11.858
	c1.275,0.511,2.593,1.021,3.954,1.532c8.161,3.23,16.706,5.609,25.633,7.142c8.163,1.444,16.664,2.167,25.507,2.167
	c8.842,0,17.386-0.723,25.633-2.167c9.012-1.532,17.685-3.953,26.017-7.271c1.19-0.508,2.382-1.019,3.572-1.529
	c7.396-3.23,14.536-7.099,21.424-11.604c7.566-5.186,14.793-11.224,21.68-18.111c14.113-14.113,24.572-29.798,31.372-47.057
	c0-0.087,0.043-0.172,0.13-0.257h-53.182v31.502c-5.017,4.591-10.203,8.713-15.558,12.37c-10.883,7.226-22.702,12.242-35.455,15.049
	v-58.921h-51.14v58.921c-12.753-2.807-24.57-7.824-35.453-15.049c-5.441-3.572-10.629-7.652-15.56-12.243v-31.629h-24.23
	c-4.337-8.417-7.481-17.343-9.438-26.781c-1.615-7.736-2.423-15.814-2.423-24.231h18.875l0.255,0.384l0.255-0.384h16.706v-82.512
	c4.847-4.592,9.947-8.629,15.304-12.115c10.968-7.312,22.829-12.371,35.582-15.177l0.127,109.804h51.14V101.162
	c12.753,2.721,24.614,7.738,35.582,15.05c5.354,3.486,10.499,7.566,15.431,12.242v82.385h101.26c0,17.939-2.297,34.944-6.887,51.012
	c-3.741,12.923-8.97,25.21-15.686,36.857l19.768,28.311c-7.651,11.224-16.579,21.895-26.781,32.013
	c-10.118,10.115-20.746,19-31.883,26.651l-28.187-19.638c-3.826,2.125-7.694,4.165-11.604,6.12
	c-9.351,4.422-19.088,7.993-29.205,10.713l-5.993,33.923c-5.187,0.937-10.457,1.701-15.814,2.297
	c-8.332,0.934-16.876,1.402-25.633,1.402c-8.672,0-17.175-0.469-25.507-1.402c-5.356-0.596-10.627-1.36-15.814-2.297l-5.992-34.05
	c-10.118-2.635-19.854-6.207-29.206-10.713c-3.825-1.87-7.566-3.826-11.222-5.866l-28.312,19.768
	c-11.307-7.651-22.105-16.621-32.394-26.908c-10.032-10.033-18.832-20.535-26.398-31.502l19.895-28.311
	c-6.887-11.819-12.2-24.273-15.941-37.368c-0.34-1.105-0.68-2.251-1.02-3.442l-34.051-5.996
	c-2.551-13.349-3.826-27.205-3.826-41.575v-0.127c0-14.284,1.233-28.015,3.699-41.192l34.178-5.994
	c3.741-14.284,9.31-27.802,16.706-40.555L43.238,94.531c7.652-11.224,16.537-21.894,26.653-32.011
	c10.203-10.118,20.916-19.001,32.139-26.653l28.438,19.895c3.657-2.126,7.398-4.082,11.224-5.866
	c9.353-4.507,19.044-8.12,29.077-10.84l6.121-34.179c5.187-1.02,10.458-1.827,15.814-2.422c8.332-0.936,16.877-1.404,25.634-1.404
	c8.673,0,17.216,0.468,25.633,1.404c5.357,0.595,10.628,1.402,15.814,2.422l6.122,34.179c10.031,2.635,19.726,6.206,29.076,10.712
	c3.826,1.786,7.566,3.783,11.224,5.994l28.438-19.895c11.224,7.566,21.895,16.451,32.013,26.653
	c10.115,10.118,19,20.745,26.652,31.883L373.416,122.842z"/>
</svg>
