<?xml version="1.0" encoding="utf-8"?>
<!-- Generator: Adobe Illustrator 16.0.0, SVG Export Plug-In . SVG Version: 6.00 Build 0)  -->
<!DOCTYPE svg PUBLIC "-//W3C//DTD SVG 1.1//EN" "http://www.w3.org/Graphics/SVG/1.1/DTD/svg11.dtd">
<svg version="1.1" id="Selected_Items" xmlns="http://www.w3.org/2000/svg" xmlns:xlink="http://www.w3.org/1999/xlink" x="0px"
	 y="0px" width="617px" height="177px" viewBox="0 0 617 177" enable-background="new 0 0 617 177" xml:space="preserve">
<g>
	<path fill-rule="evenodd" clip-rule="evenodd" fill="#C72127" d="M608.65,137.25H571.9v15.05h40.8V169h-64.45V93.2h63.3v16.3H571.9
		v12.15h36.75V137.25z M370.25,115.9c0-2.334-0.783-4.184-2.35-5.551c-1.367-1.133-4.301-1.699-8.801-1.699H348.7v14.199h9.95
		c2.267,0,4.366-0.216,6.3-0.649c1.767-0.334,3.033-0.983,3.8-1.95C369.75,118.95,370.25,117.5,370.25,115.9z M381.1,94.95
		c4.067,1.333,7.167,3.533,9.301,6.6c2.366,3.367,3.55,7.483,3.55,12.351c0,4.3-0.9,7.966-2.7,11c-0.233,0.366-0.45,0.733-0.65,1.1
		c-1.767,2.6-4.033,4.733-6.8,6.4c-2.066,1.233-4.833,2.25-8.3,3.05c2.667,0.866,4.717,1.816,6.15,2.85
		c0.833,0.601,2.1,1.95,3.8,4.05c1.5,1.867,2.6,3.5,3.3,4.9l2.6,5.3l-6.199,16.95h-12l-12.301-23c-1.767-3.366-3.183-5.434-4.25-6.2
		c-1.267-0.899-3.199-1.35-5.8-1.35h-2.1v30.55H325v-76h39.35C372.55,93.5,378.134,93.983,381.1,94.95z M422.3,140.5h16.8
		L430.65,113L422.3,140.5z M280.65,113l-8.35,27.5h16.8L280.65,113z M294,157h-26.85l-3.65,12.5h-24.15l28.7-76.3h25.75l28.7,76.3
		h-24.75L294,157z M413.5,169.5h-24.1l28.649-76.3h25.8l28.65,76.3h-24.75L444,157h-26.85L413.5,169.5z M536.4,101.3
		c2.8,3.334,4.866,7.417,6.199,12.25l-22.75,4.05c-0.933-2.899-2.533-5.1-4.8-6.6c-2.233-1.533-5.083-2.3-8.55-2.3
		c-5.167,0-9.3,1.8-12.4,5.399c-2.42,2.815-3.887,6.948-4.399,12.4c-0.134,1.456-0.2,3.006-0.2,4.65c0,8.3,1.55,14.216,4.65,17.75
		c3.1,3.533,7.433,5.3,13,5.3c2.566,0,5.083-0.384,7.55-1.15c2.399-0.733,5.149-2.033,8.25-3.899v-7.2h-15.8v-15.9h36.5v32.601
		c-7.067,4.8-13.25,8.033-18.551,9.699c-5.3,1.733-11.666,2.601-19.1,2.601c-9.066,0-16.45-1.55-22.15-4.65
		c-5.699-3.066-10.133-7.666-13.3-13.8c-3.166-6.167-4.75-13.2-4.75-21.1c0-1.678,0.066-3.311,0.2-4.9
		c0.564-6.308,2.23-11.925,5-16.85c3.4-6.167,8.434-10.851,15.1-14.051c5.2-2.466,12.167-3.699,20.9-3.699
		c8.467,0,14.783,0.767,18.95,2.3C530.05,95.667,533.533,98.033,536.4,101.3z M231.45,94.2c4.1,1.467,7.583,3.833,10.45,7.1
		c2.8,3.334,4.867,7.417,6.2,12.25l-22.75,4.05c-0.934-2.899-2.533-5.1-4.8-6.6c-2.233-1.533-5.083-2.3-8.55-2.3
		c-5.167,0-9.3,1.8-12.4,5.399c-2.434,2.801-3.9,6.934-4.4,12.4c-0.133,1.467-0.2,3.017-0.2,4.65c0,8.3,1.55,14.216,4.65,17.75
		c3.1,3.533,7.434,5.3,13,5.3c2.567,0,5.083-0.384,7.55-1.15c2.4-0.733,5.15-2.033,8.25-3.899v-7.2h-15.8v-15.9h36.5v5.476
		l-13.875,35.05c-1.631,0.716-3.189,1.308-4.675,1.774c-5.3,1.733-11.667,2.601-19.1,2.601c-9.067,0-16.45-1.55-22.15-4.65
		c-5.7-3.066-10.133-7.666-13.3-13.8c-3.167-6.167-4.75-13.2-4.75-21.1c0-1.667,0.067-3.301,0.2-4.9c0.567-6.3,2.233-11.917,5-16.85
		c3.4-6.167,8.433-10.851,15.1-14.051c5.2-2.466,12.167-3.699,20.9-3.699C220.967,91.9,227.283,92.667,231.45,94.2z"/>
	<path fill-rule="evenodd" clip-rule="evenodd" fill="#383332" d="M464.15,27.7v12.35h36V56.1h-36v9.4L448.7,40.9l27.8-28.3h26.35
		v15.1H464.15z M442.5,40.4L471.65,88H442.55l-16.1-31.45l-12.2,12.8V88h-23.6V12.5h23.6v27.95l23.925-27.95h31.3L442.5,40.4z
		 M548.05,41.8c1.566-0.333,2.851-1.117,3.851-2.35c0.966-1.3,1.449-2.784,1.449-4.45c0-2.4-0.767-4.283-2.3-5.65
		c-1.533-1.3-4.45-1.95-8.75-1.95h-10.35v15.4h9.899C543.116,42.8,545.184,42.467,548.05,41.8z M566.85,51.5
		c-2.066,1.2-4.816,2.183-8.25,2.95c2.733,0.933,4.767,1.867,6.101,2.8c0.866,0.667,2.1,2.017,3.7,4.05
		c1.767,2.167,2.883,3.733,3.35,4.7l11.35,22h-26.5l-12.55-23.2c-1.6-3-3.017-4.95-4.25-5.85c-1.7-1.2-3.616-1.8-5.75-1.8h-2.1V88
		H508.4V12.5h48.475c2.865,0.316,5.29,0.8,7.275,1.45c3.833,1.267,6.916,3.566,9.25,6.9c2.333,3.333,3.5,7.417,3.5,12.25
		c0,4.233-0.884,7.883-2.65,10.95C572.45,47.05,569.983,49.533,566.85,51.5z M336,49c0,8.3,1.283,14,3.85,17.1
		c2.467,3.066,6.017,4.6,10.65,4.6c4.5,0,7.85-1.25,10.05-3.75c2.3-2.467,3.95-6.067,4.95-10.8l20.4,6.1
		c-1.367,5.767-3.534,10.55-6.5,14.35c-2.934,3.867-6.584,6.75-10.95,8.65c-2.725,1.215-5.925,2.049-9.601,2.5
		c-0.84,0.104-1.706,0.187-2.6,0.25h-9.325c-0.989-0.063-1.956-0.146-2.899-0.25c-4.752-0.522-8.827-1.555-12.226-3.1
		c-5.166-2.367-9.633-6.55-13.399-12.55c-3.767-5.934-5.65-13.583-5.65-22.95c0-12.433,3.3-22,9.9-28.7c5.5-5.5,12.833-8.733,22-9.7
		H357c6.6,0.667,11.967,2.467,16.1,5.4c5.4,3.867,9.417,9.75,12.051,17.65l-20.5,4.6c-0.7-2.267-1.45-3.95-2.25-5.05
		c-1.334-1.8-2.917-3.167-4.75-4.1c-1.9-0.967-4.017-1.45-6.351-1.45c-5.267,0-9.3,2.117-12.1,6.35C337.066,37.25,336,42.2,336,49z
		 M294.6,88l-3.85-12.65h-26.8L260.2,88h-24.1l28.4-75.5h26.45L319.3,88H294.6z M502.35,71v17h-24.574L467.1,71H502.35z
		 M197.25,12.6v24.6h24.6V12.6h25.55v36.5L232.35,88h-10.5V58h-24.6v30h-23.7V12.6H197.25z M269.1,58.85h16.75l-8.4-27.5
		L269.1,58.85z"/>
	<path fill-rule="evenodd" clip-rule="evenodd" fill="#C72127" d="M147.65,29.15c3.867,3.867,7.383,8.083,10.55,12.65l-7.9,11.3
		l0.05,0.05h-0.05l-13.4,7.6c-1.267-2.133-2.717-4.25-4.35-6.35c-1.733-2.167-3.333-3.95-4.8-5.35c-2.533-2.566-5.4-4.95-8.6-7.15
		c-3-1.967-5.816-3.517-8.45-4.65l-1.65-0.65c-3.233-1.3-6.617-2.25-10.15-2.85c-3.1-0.567-6.5-0.85-10.2-0.85
		c-3.667,0-7.067,0.283-10.2,0.85c-3.567,0.6-6.95,1.567-10.15,2.9L66.7,37.3c-2.833,1.2-5.65,2.733-8.45,4.6
		c-3.2,2.2-6.067,4.583-8.6,7.15c-5.233,5.233-9.167,10.934-11.8,17.1L37.2,67.7c-2.5,6.267-3.75,13.05-3.75,20.35
		c0,7.2,1.216,13.95,3.65,20.25l0.75,1.75c2.733,6.3,6.667,11.983,11.8,17.05c2.7,2.767,5.583,5.15,8.65,7.15
		c2.733,1.866,5.567,3.45,8.5,4.75l1.6,0.6c3.367,1.301,6.75,2.233,10.15,2.801c3.267,0.6,6.65,0.899,10.15,0.899
		s6.9-0.3,10.2-0.899c3.567-0.601,7-1.551,10.3-2.851l1.45-0.6c2.833-1.267,5.667-2.816,8.5-4.65c3.1-2.133,5.967-4.533,8.6-7.2
		c5.667-5.666,9.833-11.883,12.5-18.649l0.05-0.15h-21.15v12.55c-2.133,1.9-4.2,3.534-6.2,4.9c-4.167,2.833-8.85,4.833-14.05,6
		V108.3H78.55v23.45c-5.2-1.167-9.883-3.167-14.05-6c-2.033-1.3-4.1-2.917-6.2-4.85V108.3h-9.65c-1.7-3.3-2.95-6.833-3.75-10.6
		c-0.633-3.267-0.95-6.483-0.95-9.65h7.5l0.1,0.15l0.1-0.15h6.65V55.3c1.967-1.867,4-3.483,6.1-4.85c4.367-2.9,9.067-4.9,14.1-6
		l0.05,43.6H98.9V44.5c5,1.033,9.7,3.017,14.1,5.95c2.267,1.466,4.317,3.1,6.15,4.9v32.7h40.25c0,7.033-0.917,13.783-2.75,20.25
		c-1.533,5.3-3.617,10.184-6.25,14.65l7.85,11.25c-2.967,4.399-6.5,8.649-10.6,12.75c-4.233,4.166-8.467,7.684-12.7,10.55l-11.2-7.8
		l-4.6,2.45c-3.8,1.8-7.667,3.216-11.6,4.25l-2.4,13.5L98.9,170.8c-3.5,0.367-6.9,0.55-10.2,0.55c-3.267,0-6.65-0.183-10.15-0.55
		L72.3,169.9l-2.4-13.551c-4.133-1.1-8-2.517-11.6-4.25c-2-1-3.483-1.783-4.45-2.35L42.6,157.6
		c-4.333-2.899-8.633-6.449-12.9-10.649c-4.067-4.134-7.55-8.316-10.45-12.55l7.9-11.25c-2.733-4.601-4.85-9.551-6.35-14.851
		l-0.4-1.35L6.85,104.6c-1-5.333-1.5-10.85-1.5-16.55V88c0-5.567,0.483-11.017,1.45-16.35l13.6-2.4
		c1.533-5.767,3.75-11.133,6.65-16.1l-7.9-11.3c3.133-4.567,6.65-8.8,10.55-12.7c4.033-3.967,8.3-7.5,12.8-10.6l11.3,7.9
		c0.967-0.567,2.45-1.35,4.45-2.35c3.8-1.8,7.65-3.233,11.55-4.3l2.45-13.55c2.233-0.433,4.317-0.767,6.25-1
		C82,4.883,85.4,4.7,88.7,4.7c3.3,0,6.7,0.183,10.2,0.55c1.934,0.233,4.017,0.567,6.25,1l2.45,13.55c3.833,1,7.683,2.417,11.55,4.25
		c2,1,3.483,1.8,4.45,2.4l11.3-7.9C139.3,21.517,143.55,25.05,147.65,29.15z"/>
</g>
</svg>
